<svg height="512pt" viewBox="0 0 512 512" width="512pt" xmlns="http://www.w3.org/2000/svg"><path d="m32 0h224v96h-224zm0 0" fill="#ff8a65"/><path d="m0 64h288v448h-288zm0 0" fill="#ff7043"/><path d="m96 400h96v112h-96zm0 0" fill="#f24c2c"/><g fill="#fff"><path d="m96 336h32v32h-32zm0 0"/><path d="m160 336h32v32h-32zm0 0"/><path d="m96 272h32v32h-32zm0 0"/><path d="m160 272h32v32h-32zm0 0"/><path d="m96 208h32v32h-32zm0 0"/><path d="m160 208h32v32h-32zm0 0"/><path d="m96 144h32v32h-32zm0 0"/><path d="m160 144h32v32h-32zm0 0"/></g><path d="m224 192h288v320h-288zm0 0" fill="#ff8a65"/><path d="m304 256h128c8.835938 0 16 7.164062 16 16s-7.164062 16-16 16h-128c-8.835938 0-16-7.164062-16-16s7.164062-16 16-16zm0 0" fill="#fff"/><path d="m304 320h128c8.835938 0 16 7.164062 16 16s-7.164062 16-16 16h-128c-8.835938 0-16-7.164062-16-16s7.164062-16 16-16zm0 0" fill="#fff"/><path d="m304 400h128v96h-128zm0 0" fill="#fff"/><path d="m288 384v128h160v-128zm32 32h32v64h-32zm96 64h-32v-64h32zm0 0" fill="#ff7043"/></svg>