<?xml version="1.0" encoding="UTF-8"?>
<svg xmlns="http://www.w3.org/2000/svg"  xmlns:xlink="http://www.w3.org/1999/xlink" width="512" height="512" viewBox="0 0 60 49" version="1.1"> <g id="Page-1"  stroke-width="1" stroke="none" fill="none" fill-rule="evenodd"><g id="024---Movers" transform="translate(0.000000, -1.000000)" fill="#C32714" fill-rule="nonzero"><path d="M53.761,37.682 L51.983,30.549 L51,13.833 C51,13.804 50.99,13.775 50.988,13.746 C53.6747618,11.8816335 54.7126241,8.40542146 53.4877924,5.37320466 C52.2629606,2.34098787 49.101871,0.56089779 45.8740001,1.08568433 C42.6461292,1.61047086 40.2117532,4.3002705 40.0105685,7.56432874 C39.8093837,10.828387 41.895009,13.7967831 45.034,14.714 L45.256,18.503 L40.756,23.003 L39,23.003 L39,9 C39,7.8954305 38.1045695,7 37,7 L23,7 C21.8954305,7 21,7.8954305 21,9 L21,23 L19.243,23 L14.743,18.5 L14.963,14.711 C18.1021853,13.7940832 20.1881402,10.8257556 19.9871635,7.56158197 C19.7861868,4.29740838 17.3518454,1.60739748 14.1238875,1.08250863 C10.8959295,0.557619786 7.734711,2.33775298 6.50987871,5.37007992 C5.28504641,8.40240686 6.32305805,11.8787136 9.01,13.743 C9.01,13.768 9.001,13.793 9,13.818 L8.017,30.549 L6.239,37.682 L0.6,45.2 C-0.394112507,46.5254834 -0.125483342,48.4058874 1.20000004,49.3999999 C2.52548342,50.3941125 4.40588744,50.1254834 5.4,48.8 L11.4,40.806 C11.6431074,40.4869971 11.8180598,40.1214349 11.914,39.732 L12.522,37.294 L15,40.126 L15,47 C15,48.6568542 16.3431458,50 18,50 C19.6568542,50 21,48.6568542 21,47 L21,39 C20.9951164,38.2739367 20.7337165,37.572974 20.262,37.021 L14.072,29.949 L14.272,26.518 L15.872,28.118 C16.4346243,28.6850704 17.2011839,29.0027892 18,29 L25,29 C26.6568542,29 28,27.6568542 28,26 C27.9966856,25.6585603 27.9344378,25.320257 27.816,25 L32.184,25 C32.0655622,25.320257 32.0033144,25.6585603 32,26 C32,27.6568542 33.3431458,29 35,29 L42,29 C42.7958132,29.0019743 43.5594228,28.6858738 44.121,28.122 L45.721,26.522 L45.921,29.954 L39.721,37.042 C39.2587737,37.5900857 39.0036068,38.2830355 39,39 L39,47 C39,48.6568542 40.3431458,50 42,50 C43.6568542,50 45,48.6568542 45,47 L45,40.126 L47.482,37.294 L48.088,39.724 C48.1829185,40.1140375 48.3572113,40.4803246 48.6,40.8 L54.6,48.8 C55.1680045,49.5536884 56.0562466,49.9978094 57,50 C58.1363162,50 59.1751055,49.3579929 59.6832816,48.3416408 C60.1914576,47.3252887 60.0817897,46.1090529 59.4,45.2 L53.761,37.682 Z M42,8 C42,5.23857625 44.2385763,3 47,3 C49.7614237,3 52,5.23857625 52,8 C52,10.7614237 49.7614237,13 47,13 C44.2399468,12.9966939 42.0033061,10.7600532 42,8 Z M32,9 L32,12.131 L30.555,11.168 C30.2189631,10.9438005 29.7810369,10.9438005 29.445,11.168 L28,12.131 L28,9 L32,9 Z M23,9 L26,9 L26,14 C25.9999448,14.3688869 26.2029784,14.707846 26.528235,14.881874 C26.8534915,15.0559019 27.2481413,15.0367322 27.555,14.832 L30,13.2 L32.445,14.83 C32.7515602,15.034534 33.14577,15.0538804 33.4708844,14.8803466 C33.7959988,14.7068129 33.9993185,14.368528 34,14 L34,9 L37,9 L37,23 L23,23 L23,9 Z M8,8 C8,5.23857625 10.2385763,3 13,3 C15.7614237,3 18,5.23857625 18,8 C18,10.7614237 15.7614237,13 13,13 C10.2399468,12.9966939 8.00330612,10.7600532 8,8 Z M9.968,39.257 C9.93531006,39.3813466 9.87820092,39.4979445 9.8,39.6 L3.8,47.6 C3.46033244,48.0275915 2.84580648,48.1153809 2.4,47.8 C1.9581722,47.4686292 1.86862915,46.8418278 2.2,46.4 L7.96,38.72 C8.04012278,38.6132876 8.0979384,38.4915347 8.13,38.362 L9.31,33.631 L10.91,35.462 L9.968,39.257 Z M25,27 L18,27 C17.7351,26.9994468 17.4810867,26.894536 17.293,26.708 L14.167,23.581 C14.156,23.568 14.143,23.558 14.131,23.546 L12.885,22.3 C12.6339255,22.0400434 12.2621221,21.9357874 11.9124927,22.0273028 C11.5628632,22.1188183 11.2898183,22.3918632 11.1983028,22.7414927 C11.1067874,23.0911221 11.2110434,23.4629255 11.471,23.714 L12.385,24.628 L12.052,30.228 L12.052,30.235 C12.0541246,30.2615251 12.0577975,30.2879034 12.063,30.314 C12.0617068,30.4156237 12.0762132,30.5168311 12.106,30.614 C12.1399069,30.7006784 12.1864068,30.7818847 12.244,30.855 C12.2600936,30.8868704 12.2777827,30.9179097 12.297,30.948 L18.744,38.313 C18.9071982,38.5049278 18.9978041,38.7480772 19,39 L19,47 C19,47.5522847 18.5522847,48 18,48 C17.4477153,48 17,47.5522847 17,47 L17,39.75 C16.9999604,39.5075316 16.9118262,39.2733362 16.752,39.091 L10.245,31.663 C10.0507259,31.436678 9.96490122,31.1368392 10.01,30.842 C10.01,30.818 10.004,30.796 10.01,30.772 L10.01,30.759 L10.956,14.693 C11.6022025,14.8894181 12.2736102,14.990483 12.949,14.993 L12.783,17.826 C12.76,17.846 12.731,17.854 12.709,17.875 C12.3186181,18.2654999 12.3186181,18.8985001 12.709,19.289 L12.967,19.548 C12.976,19.558 12.987,19.567 12.996,19.577 L18.124,24.704 C18.3116563,24.8911827 18.5659486,24.9962087 18.831,24.996 L25,24.996 C25.5522847,24.996 26,25.4437153 26,25.996 C26,26.5482847 25.5522847,26.996 25,26.996 L25,27 Z M43.248,39.091 C43.0881738,39.2733362 43.0000396,39.5075316 43,39.75 L43,47 C43,47.5522847 42.5522847,48 42,48 C41.4477153,48 41,47.5522847 41,47 L41,39 C41.0031399,38.758382 41.0888932,38.5251188 41.243,38.339 L47.703,30.958 C47.727,30.93 47.735,30.895 47.756,30.866 C47.8835365,30.7140122 47.9482729,30.5190877 47.937,30.321 C47.9421359,30.2945561 47.9458082,30.2678488 47.948,30.241 L47.948,30.234 L47.615,24.634 L48.529,23.72 C48.7826586,23.4674132 48.8822953,23.0986882 48.790378,22.75272 C48.6984608,22.4067519 48.4289539,22.1361014 48.083378,22.04272 C47.7378022,21.9493387 47.3686586,22.0474132 47.115,22.3 L45.869,23.546 C45.857,23.558 45.844,23.568 45.833,23.581 L42.707,26.708 C42.5189133,26.894536 42.2649,26.9994468 42,27 L35,27 C34.4477153,27 34,26.5522847 34,26 C34,25.4477153 34.4477153,25 35,25 L41.171,25 C41.4360514,25.0002087 41.6903437,24.8951827 41.878,24.708 L47.005,19.582 C47.015,19.571 47.026,19.562 47.036,19.551 L47.293,19.293 C47.6833819,18.9025001 47.6833819,18.2694999 47.293,17.879 C47.271,17.858 47.243,17.85 47.219,17.831 L47.054,15 C47.7290622,14.9974856 48.4001404,14.8964197 49.046,14.7 L49.992,30.766 L49.992,30.779 C49.992,30.803 49.985,30.825 49.992,30.849 C50.0370402,31.1427229 49.9523948,31.4415358 49.76,31.668 L43.248,39.091 Z M57.6,47.8 C57.1538161,48.113813 56.5404689,48.026192 56.2,47.6 L50.2,39.595 C50.122034,39.4915887 50.0655887,39.3735976 50.034,39.248 L49.09,35.463 L50.695,33.632 L51.874,38.362 C51.9060616,38.4915347 51.9638772,38.6132876 52.044,38.72 L57.8,46.4 C58.1313708,46.8418278 58.0418278,47.4686292 57.6,47.8 Z" id="Shape"/></g></g></svg>
