<svg height="464pt" viewBox="0 0 464 464" width="464pt" xmlns="http://www.w3.org/2000/svg"><g fill="#8f583c"><path d="m0 240h464v32h-464zm0 0"/><path d="m0 272h32v192h-32zm0 0"/><path d="m432 272h32v192h-32zm0 0"/></g><path d="m464 24c0-13.253906-10.746094-24-24-24h-192c-13.253906 0-24 10.746094-24 24v112h240zm0 0" fill="#87ced9"/><path d="m384 240h-80l16-64h48zm0 0" fill="#dedede"/><path d="m224 136v16c0 13.253906 10.746094 24 24 24h192c13.253906 0 24-10.746094 24-24v-16zm0 0" fill="#dedede"/><path d="m208 312v-112c0-17.671875-14.328125-32-32-32h-80c-17.671875 0-32 14.328125-32 32v120c0 17.671875 14.328125 32 32 32h148c11.046875 0 20-8.953125 20-20s-8.953125-20-20-20zm0 0" fill="#4398d1"/><path d="m216 416h-48v-64h-32v64h-48c-12.21875-.050781-22.523438 9.085938-23.9375 21.222656-1.414062 12.132813 6.511719 23.394532 18.414062 26.15625 11.902344 2.761719 23.980469-3.859375 28.050782-15.378906h82.945312c4.085938 11.476562 16.136719 18.058594 28.003906 15.296875 11.863282-2.761719 19.769532-13.988281 18.367188-26.09375-1.402344-12.101563-11.660156-21.226563-23.84375-21.203125zm0 0" fill="#dedede"/><path d="m136 352h32v16h-32zm0 0" fill="#c7c7c7"/><path d="m244 312h-36v-112c-.03125-13.839844-8.984375-26.082031-22.167969-30.304688-13.542969 66.617188-42.652343 129.085938-84.953125 182.304688h143.121094c11.046875 0 20-8.953125 20-20s-8.953125-20-20-20zm0 0" fill="#3087c2"/><path d="m392 464h-80l-8-112h96zm0 0" fill="#4398d1"/><path d="m372 192-4-16h-48l-4 16zm0 0" fill="#c7c7c7"/><path d="m311.464844 456.535156.535156 7.464844h80l6.769531-94.769531zm0 0" fill="#3087c2"/><path d="m440 0h-24l-136 136h184v-112c0-13.253906-10.746094-24-24-24zm0 0" fill="#71c4d1"/><path d="m208 240h24v32h-24zm0 0" fill="#73442e"/><path d="m298.34375 98.347656 64-64 11.316406 11.3125-64.003906 64zm0 0" fill="#95e4f0"/><path d="m290.347656 58.34375 32.003906-32 11.3125 11.3125-32 32.003906zm0 0" fill="#95e4f0"/><path d="m346.34375 98.34375 32-32 11.3125 11.3125-32 32zm0 0" fill="#95e4f0"/></svg>