<?xml version="1.0" encoding="iso-8859-1"?>
<!-- Generator: Adobe Illustrator 19.0.0, SVG Export Plug-In . SVG Version: 6.00 Build 0)  -->
<svg version="1.1" id="Capa_1" xmlns="http://www.w3.org/2000/svg" xmlns:xlink="http://www.w3.org/1999/xlink" x="0px" y="0px"
	 viewBox="0 0 512 512" style="enable-background:new 0 0 512 512;" xml:space="preserve">
<path style="fill:#F0A086;" d="M198.638,153.425l-83.565-12.859c-11.866-1.826-20.004-12.925-18.178-24.79
	c1.826-11.865,12.924-20.004,24.79-18.178l73.148,11.256l45.129-42.065c8.783-8.188,22.537-7.702,30.722,1.08
	c8.185,8.782,7.703,22.536-1.08,30.722l-52.839,49.251C211.917,152.361,205.244,154.441,198.638,153.425z"/>
<path style="fill:#5FA6F2;" d="M179.217,106.449l-57.532-8.853c-11.866-1.826-22.964,6.312-24.79,18.178
	c-1.826,11.866,6.312,22.964,18.178,24.79l58.989,9.078L179.217,106.449z"/>
<path style="fill:#343E6B;" d="M65.535,512c13.476,0,24.402-10.925,24.402-24.402V292.553c0-13.476-10.925-24.402-24.402-24.402
	s-24.402,10.925-24.402,24.402v195.045C41.133,501.075,52.058,512,65.535,512z"/>
<path style="fill:#414B82;" d="M124.441,512c13.476,0,24.402-10.925,24.402-24.402V292.553c0-13.476-10.925-24.402-24.402-24.402
	s-24.402,10.925-24.402,24.402v195.045C100.039,501.075,110.965,512,124.441,512z"/>
<path style="fill:#64AFFF;" d="M148.842,292.553H41.133v-163.66c0-17.469,14.161-31.63,31.63-31.63h44.448
	c17.469,0,31.63,14.161,31.63,31.63L148.842,292.553L148.842,292.553z"/>
<circle style="fill:#FFB69E;" cx="94.993" cy="42.143" r="42.143"/>
<path style="fill:#B48255;" d="M431.508,77.252c-6.183-5.856-15.943-5.59-21.8,0.594l-70.355,74.296h-90.83l-63.449-80.84
	c-5.258-6.699-14.951-7.868-21.651-2.61c-6.699,5.258-7.868,14.951-2.61,21.651c71.395,90.419,72.375,90.688,72.375,90.688v88.41
	c0,3.879,3.144,7.023,7.023,7.023H353.23c3.879,0,7.023-3.144,7.023-7.023v-94.518l71.849-75.874
	C437.958,92.867,437.691,83.107,431.508,77.252z"/>
<path style="fill:#59250F;" d="M427.073,511.035c-10.219,0-18.505-8.284-18.505-18.505V313.474H245.728V492.53
	c0,10.219-8.284,18.505-18.505,18.505c-10.22,0-18.505-8.284-18.505-18.505V294.97c0-10.219,8.284-18.505,18.505-18.505h199.849
	c10.219,0,18.505,8.284,18.505,18.505v197.561C445.578,502.749,437.293,511.035,427.073,511.035z"/>
<path style="fill:#80391B;" d="M470.867,294.97c0,10.219-8.284,18.505-18.505,18.505H201.934c-10.219,0-18.505-8.284-18.505-18.505
	s8.284-18.505,18.505-18.505h250.428C462.582,276.465,470.867,284.75,470.867,294.97z"/>
<path style="fill:#FFB69E;" d="M138.764,198.126l-62.808-56.602c-8.918-8.037-9.632-21.782-1.595-30.699
	c8.037-8.917,21.782-9.632,30.699-1.595l54.978,49.545l60.809-10.407c11.835-2.027,23.068,5.926,25.092,17.76
	c2.025,11.833-5.926,23.068-17.759,25.093l-71.198,12.184C150.45,204.522,143.73,202.6,138.764,198.126z"/>
<path style="fill:#78BEFF;" d="M148.302,148.197l-43.241-38.968c-8.918-8.037-22.663-7.322-30.699,1.595s-7.322,22.663,1.595,30.699
	l44.336,39.955L148.302,148.197z"/>
<g>
</g>
<g>
</g>
<g>
</g>
<g>
</g>
<g>
</g>
<g>
</g>
<g>
</g>
<g>
</g>
<g>
</g>
<g>
</g>
<g>
</g>
<g>
</g>
<g>
</g>
<g>
</g>
<g>
</g>
</svg>
