<?xml version="1.0"?>
<svg xmlns="http://www.w3.org/2000/svg" xmlns:xlink="http://www.w3.org/1999/xlink" version="1.1" id="Capa_1" x="0px" y="0px" width="512px" height="512px" viewBox="0 0 38.926 38.926" style="enable-background:new 0 0 38.926 38.926;" xml:space="preserve" class=""><g><g>
	<path d="M25.264,2.918l-2.002,5.143h-2.17c-0.006,0-0.012,0.004-0.02,0.004h-6.424c-2.367,0-4.293,1.801-4.293,4.012v0.121   l-2.301-0.022v-1.875H0v17.166h8.055v-1.424l2.439-0.002c0.481,1.676,2.16,2.916,4.152,2.916h0.484l-0.675,1.732l13.666,5.318   L38.926,8.235L25.264,2.918z M14.648,26.955c-1.264,0-2.291-0.854-2.291-1.916v-1.001l-4.302,0.003v-9.867l4.302,0.043v-2.141   c0-1.109,1.027-2.012,2.291-2.012h10.629c0.002,0,0.006-0.002,0.008-0.002c0.383,0.006,0.705,0.42,0.705,0.911   c0,0.495-0.326,0.914-0.713,0.914l-4.238,0.001l-0.182,0.01c-0.531,0.029-0.949,0.469-0.949,1c0,0.805,0,0.948-1.342,0.948h-3.564   c-0.554,0-1,0.447-1,1c0,0.554,0.446,1,1,1h3.565c0.596,0,1.219-0.058,1.768-0.264l-4.424,11.371L14.648,26.955L14.648,26.955z    M24.871,24.143c-2.584-1.004-3.863-3.916-2.857-6.502s3.916-3.863,6.5-2.859c2.586,1.007,3.865,3.918,2.861,6.501   C30.369,23.869,27.459,25.148,24.871,24.143z M26.504,17.376l0.439-0.847l0.896,0.468l-0.705,1.353l0.535,0.875l0.948-1.822   l0.896,0.47l-1.062,2.042l2.021,1.051l-0.635,1.216l-2.021-1.051l-1.014,1.941l-0.896-0.467l0.906-1.738l-1.016,0.048l-0.67,1.287   l-0.895-0.47l0.418-0.803l-2.352,0.078l0.721-1.381l3.439,0.031l0.02-0.039L24.5,16.781l0.74-1.424L26.504,17.376z" data-original="#000000" class="active-path" data-old_color="#FF0070" fill="#FF0068"/>
</g></g> </svg>
