<svg xmlns="http://www.w3.org/2000/svg" height="512pt" viewBox="0 0 512 512" width="512pt"><path d="m366.859375 124.3125v112.203125h-141.09375v-112.203125h60.46875l10.078125 20.15625 10.078125-20.15625zm0 0" fill="#fdbf00"/><path d="m366.859375 124.3125v112.203125h-70.546875v-92.046875l10.078125-20.15625zm0 0" fill="#ff9100"/><path d="m205.609375 226.4375h181.40625v151.171875h-181.40625zm0 0" fill="#ffda2d"/><path d="m296.3125 226.4375h90.703125v151.171875h-90.703125zm0 0" fill="#fdbf00"/><path d="m185.453125 337.296875h-20.15625v-233.140625h-60.46875v-20.15625h80.625zm0 0" fill="#575f64"/><path d="m343.679688 310.085938-14.109376 14.109374-23.179687-22.980468v46.160156h-20.15625v-46.160156l-23.179687 22.980468-14.109376-14.109374 47.367188-47.570313zm0 0" fill="#8c4a37"/><path d="m343.679688 310.085938-14.109376 14.109374-23.179687-22.980468v46.160156h-10.078125v-84.859375zm0 0" fill="#663325"/><path d="m286.234375 124.3125h20.15625v40.3125h-20.15625zm0 0" fill="#8c4a37"/><path d="m296.3125 124.3125h10.078125v40.3125h-10.078125zm0 0" fill="#663325"/><path d="m215.6875 367.53125h191.484375v20.15625h-191.484375zm0 0" fill="#575f64"/><path d="m296.3125 367.53125h110.859375v20.15625h-110.859375zm0 0" fill="#32393f"/><path d="m175.375 428c-27.785156 0-50.390625-22.605469-50.390625-50.390625s22.605469-50.390625 50.390625-50.390625 50.390625 22.605469 50.390625 50.390625-22.605469 50.390625-50.390625 50.390625zm0 0" fill="#575f64"/><path d="m175.375 347.375c-16.671875 0-30.234375 13.5625-30.234375 30.234375s13.5625 30.234375 30.234375 30.234375 30.234375-13.5625 30.234375-30.234375-13.5625-30.234375-30.234375-30.234375zm0 0" fill="#f2f2fc"/><path d="m175.375 387.6875c-5.566406 0-10.078125-4.511719-10.078125-10.078125s4.511719-10.078125 10.078125-10.078125 10.078125 4.511719 10.078125 10.078125-4.511719 10.078125-10.078125 10.078125zm0 0" fill="#575f64"/></svg>