<svg height="462pt" viewBox="0 -41 462 462" width="462pt" xmlns="http://www.w3.org/2000/svg" fill="red"><path d="m150.558594 185.550781c16.707031-11.390625 30.441406-37.09375 30.441406-57.300781v-83.898438l-90.5-44.351562-90.5 44.230469v84.019531c0 20.199219 13.679688 45.90625 30.382812 57.300781l60.101563 40.925781zm-72.308594-40h-.015625c-1.882813-.070312-3.664063-.878906-4.957031-2.253906l-24.914063-25.246094c-2.722656-2.78125-2.699219-7.234375.046875-9.988281 2.75-2.71875 7.179688-2.699219 9.902344.050781l19.964844 20.164063 44.253906-44.242188c2.75-2.734375 7.199219-2.71875 9.933594.035156 2.734375 2.75 2.71875 7.199219-.035156 9.933594l-49.230469 49.316406c-1.292969 1.363282-3.070313 2.160157-4.949219 2.230469zm0 0" fill="green"/><path d="m387.730469 223.550781h62.269531c-1.300781-1-2.6875-2.945312-4.179688-4.328125l-56.339843-52.019531c-1.328125-1.386719-2.832031-2.585937-4.480469-3.566406v57.523437c.113281 1.40625 1.324219 2.464844 2.730469 2.390625zm0 0"/><path d="m114.429688 311.769531c-16.242188-.734375-30.742188 10.105469-34.632813 25.890625s3.914063 32.121094 18.636719 39.015625 32.265625 2.429688 41.902344-10.667969c9.632812-13.09375 8.675781-31.171874-2.285157-43.175781-6.078125-6.699219-14.585937-10.683593-23.621093-11.0625zm0 0"/><path d="m387.730469 237.550781c-9.136719.066407-16.609375-7.253906-16.730469-16.390625v-64.75c-4.96875-1.777344-10.191406-2.742187-15.46875-2.859375h-31.53125v184h18.546875c3.851563-22 23.628906-40.015625 47.390625-40.015625s43.542969 18.015625 47.390625 40.015625h24.671875v-81.476562c-.0625-6.34375-1.292969-12.625-3.628906-18.523438zm0 0"/><path d="m40 337.550781h25.488281c1.894531-10.496093 7.148438-20.09375 14.972657-27.339843 12.980468-11.839844 31.386718-15.664063 48.007812-9.96875 16.621094 5.691406 28.820312 19.996093 31.816406 37.308593h149.714844v-79h-270zm0 0"/><path d="m389.9375 311.734375c-18.820312 0-34.082031 15.261719-34.082031 34.082031 0 18.824219 15.261719 34.082032 34.082031 34.082032 18.824219 0 34.082031-15.261719 34.082031-34.082032-.023437-18.8125-15.269531-34.058594-34.082031-34.082031zm0 0"/><path d="m279.21875 100.550781h-84.21875v27.699219c0 25.109375-15.816406 54.714844-36.574219 68.867188l-64.113281 43.613281c-1.175781.792969-2.5625 1.21875-3.984375 1.214843-1.429687.003907-2.828125-.421874-4.019531-1.214843l-46.308594-31.472657v35.292969h270v-112.953125c.058594-8.207031-3.15625-16.097656-8.9375-21.921875-5.777344-5.828125-13.636719-9.113281-21.84375-9.125zm0 0"/></svg>