<svg height="512pt" viewBox="-10 0 512 512.00092" width="512pt" xmlns="http://www.w3.org/2000/svg"><g fill-rule="evenodd"><path d="m46 193.996094h311.953125c5.351563-1.53125 10.882813-3.597656 20.535156-4.59375 4.363281-.453125 6.554688 1.441406 7.460938 4.59375h53.316406c4.378906-6.15625 8.34375-13.253906 9.851563-25.523438 1.761718-14.316406 30.078124-8.039062 32.582031-25.121094 2.359375-16.109374-8.21875-10.238281-15.375-24.738281-2.058594-4.167969-5.722657-8.003906-21.726563-9.265625-17.535156-1.382812-15.6875 7.152344-33.316406 17.09375-11.910156 6.71875-24.527344 12.503906-24.527344 15.132813 0 24.871093-7.367187 16.085937-35.542968 17.292969-17.953126.765624-10.273438-41.535157-30.640626-30.457032-16.78125 9.125-11.738281 34.109375-38.613281 30.703125-9.429687-1.195312-100.773437-26.542969-63.242187-47.484375 16.1875-9.03125-3.742188-19.242187-18.191406-25.644531-11.738282-5.199219-1.265626-18.175781-5.191407-34.25-4.320312-17.671875-14.726562-18.304687-18.441406-35.582031-1.347656-6.273438-7.507813-10.492188-29.675781 1.492187-13.097656 7.082031-47.917969-9.273437-40.265625 17.046875 14.714843 50.617188 2.078125 29.648438-1.757813 67.492188-.273437 2.691406-19.851562 13.671875-27.449218 20.503906-17.976563 16.171875 12.035156 8.082031-31.152344 16.882812-9.6875 1.976563-19.003906 24.734376-2.472656 43.066407.167968.191406 2.222656 5.542969 1.882812 11.359375zm0 0" fill="#ff9256"/><path d="m385.949219 193.996094c2.695312 9.335937-5.800781 29.71875-2.15625 33.164062 15.535156 14.691406 16.609375-12.585937 21.132812 9.609375 1.441407 7.070313 16.078125 8.476563 19.296875-12.328125 2.390625-15.46875 9.101563-22.089844 15.042969-30.441406zm0 0" fill="#f8f8f8"/><path d="m329.113281 255.898438c45.699219 3.917968-19.308593-61.515626 14.542969-60.066407 5.949219.253907 10.0625-.625 14.296875-1.832031h-311.953125c-.410156 7.070312-4.355469 14.824219-19.503906 14.824219-41.441406 0 11.175781 11.789062-10.402344 37.714843-1.890625 2.273438 36.617188 60.867188 52.917969 8.316407 1.566406-5.042969 21.632812-14.949219 14.082031 22.097656-1.921875 9.445313 1.035156 68.375 8.234375 76.058594 1.59375 1.699219 2.953125 3.351562 4.117187 4.96875l146.234376.003906c1.863281-1.75-.390626-6.878906 5.0625-26.574219.984374-3.550781 36.359374-36.535156 48.5-36.125 30.257812 1.03125 10.367187-41.402344 33.871093-39.386718zm0 0" fill="#f8f8f8"/><path d="m241.679688 357.984375-146.234376-.003906c14.078126 19.601562-.796874 34.425781 16.550782 71.804687 10.101562 21.753906-2.0625 18.75 21.464844 54.675782 3.378906 5.160156 9.886718 22.230468 28.328124 16.25 31.3125-10.152344 12.371094-36.445313 35.792969-61.15625 20.539063-21.664063-8.832031-68.472657 11.199219-74.382813 24.492188-7.230469 30.945312-5.359375 32.898438-7.1875zm0 0" fill="#78d0a9"/></g><path d="m481.660156 121.039062c-2.609375-1.773437-4.496094-3.054687-6.371094-6.851562-4.542968-9.199219-13.207031-13.488281-29.90625-14.808594-15.320312-1.207031-21.382812 4.285156-27.242187 9.59375-3.046875 2.761719-6.195313 5.617188-11.769531 8.761719-3.082032 1.738281-6.214844 3.414063-9.246094 5.035156-13.984375 7.476563-20.367188 10.890625-20.367188 18.808594 0 4.226563-.246093 6.574219-.472656 7.839844-1.769531.054687-4.585937-.101563-6.972656-.238281-4.808594-.273438-10.773438-.617188-18.296875-.3125-1.414063-1.578126-3.140625-7.144532-4.09375-10.210938-2.527344-8.140625-5.390625-17.363281-14.058594-20.886719-5.1875-2.105469-10.929687-1.480469-17.070312 1.859375-9.1875 4.996094-13.480469 12.984375-16.929688 19.402344-4.570312 8.507812-6.113281 11.375-15.648437 10.164062-2.460938-.3125-17.859375-4.128906-33.964844-10.285156-19.703125-7.53125-27.183594-13.585937-29.121094-16.15625.570313-.539062 1.617188-1.363281 3.457032-2.390625 9.601562-5.359375 11.359374-12.0625 11.144531-16.746093-.519531-11.320313-12.355469-18.867188-29.988281-26.695313-.03125-1.375.3125-3.929687.578124-5.882813.753907-5.574218 1.789063-13.214843-.277343-21.675781-2.667969-10.910156-7.433594-16.890625-11.261719-21.695312-3.332031-4.183594-5.738281-7.207031-7.117188-13.613281-1.222656-5.691407-4.597656-10.066407-9.503906-12.328126-8.039062-3.703124-18.742187-1.503906-34.703125 7.125-2.148437 1.160157-9.261719.730469-13.964843.449219-10.34375-.617187-22.066407-1.324219-28.769532 7.070313-4.144531 5.1875-4.941406 12.289062-2.378906 21.113281 4.207031 14.460937 6.214844 23.21875 6.515625 28.390625.320313 5.511719 5.070313 9.726562 10.558594 9.402344 5.515625-.316406 9.726562-5.046875 9.40625-10.558594-.402344-6.914062-2.511719-16.421875-7.277344-32.816406-.347656-1.207032-.523437-2.105469-.609375-2.746094 2.738281-.410156 7.988281-.09375 11.355469.109375 8.609375.515625 17.511719 1.050781 24.675781-2.824219 8.679688-4.691406 13.367188-5.988281 15.582031-6.324218 2.480469 9.828124 6.957031 15.445312 10.589844 20.007812 3.273437 4.105469 5.855469 7.351562 7.480469 13.988281 1.167968 4.78125.515625 9.589844-.117188 14.242188-1.046875 7.734375-2.800781 20.671875 10.96875 26.773437 8.917969 3.953125 13.605469 6.726563 16.066406 8.523438-13.058593 7.855468-13.464843 17.238281-12.496093 22.226562 2.191406 11.316406 15.109375 21.214844 40.648437 31.164063 17.300782 6.738281 35.242188 11.386719 40.007813 11.992187 23.164062 2.941406 30.761719-11.191406 35.78125-20.539062 3.027343-5.632813 5.078125-9.203125 8.785156-11.253906.898437 1.992187 1.894531 5.203124 2.558594 7.34375 2.898437 9.332031 7.765625 24.976562 23.8125 24.273437 6.597656-.28125 11.878906.019531 16.539062.285156 8.710938.496094 16.226563.925781 22.082031-4.605469 4.601563-4.34375 6.082032-10.636718 6.414063-18.660156 2.546875-1.554687 6.648437-3.746094 9.882813-5.476562 3.128906-1.671875 6.359374-3.398438 9.640624-5.25 7.523438-4.242188 12.0625-8.355469 15.378907-11.363282 4.679687-4.238281 5.519531-5.003906 12.238281-4.472656 8.082031.636719 12.640625 1.890625 13.546875 3.722656 4.203125 8.519532 9.53125 12.140626 13.058594 14.539063.519531.355469 1.1875.808594 1.605469 1.128906.035156.484375.039062 1.464844-.214844 3.195313-.3125 2.105468-2.484375 3.296875-10.582032 5.789062-8.121093 2.5-20.394531 6.277344-22.03125 19.5625-.921874 7.5-2.816406 12.449219-5.332031 16.746094h-42.421875c-2.183594-2.207031-6.632812-5.296875-13.980468-4.542969-8.9375.921875-14.84375 2.707031-19.59375 4.136719-.46875.144531-.910157.273438-1.351563.40625h-301.5c-.675781-2.992188-1.753906-6.152344-3.472656-8.054688-6.886719-7.636718-6.855469-15.164062-6.222657-18.972656.753907-4.523437 2.792969-7.082031 3.617188-7.671875l23.640625-4.839843c5.410156-1.105469 8.898437-6.390626 7.789063-11.800782-1.105469-5.410156-6.390626-8.894531-11.800782-7.789062l-23.980468 4.90625c-7.675782 1.570312-14.414063 8.554687-17.59375 18.226562-4.414063 13.425782-1.285157 28.152344 8.359374 39.785156.722657 2.570313 1.164063 6.71875-.144531 8.636719-1.027343 1.503907-4.285156 2.402344-8.710937 2.402344-12.589844 0-21.777344.601563-25.382813 8.414063-3.351562 7.273437 1.625 13.105468 4.917969 16.964843 5.980469 7.011719 7.488281 9.792969 2.375 15.9375-4.644531 5.578125-1.230469 12.074219-.105469 14.207031 4.710938 8.960938 22.804688 34.101563 43.382813 32.222657 9.566406-.882813 17.175781-6.960938 22.699218-18.109375-.230468 1.847656-.578124 4-1.085937 6.488281-1.359375 6.675781-.765625 25.9375.527344 41.515625 2.953125 35.640625 8.035156 41.0625 10.207031 43.378906 8.128906 8.675782 8.238281 14.820313 8.4375 25.976563.207031 11.871093.46875 26.648437 10.457031 48.171875 3.21875 6.929687 3.660157 10.378906 4.214844 14.746094 1.28125 10.019531 3.316406 18.84375 17.957031 41.195312.25.382812.6875 1.160156 1.113282 1.910156 3.070312 5.421875 11.410156 20.15625 28.140624 20.152344 3.191407 0 6.695313-.535156 10.519532-1.777344 23.070312-7.480468 25.960937-23.585937 28.285156-36.523437 1.703125-9.476563 3.3125-18.433594 11.683594-27.265625 13.957031-14.726563 10.765625-35.910156 8.199218-52.929688-.902343-5.988281-2.386718-15.847656-1.265624-18.792968 14.3125-4.210938 22.042968-5.125 26.203124-5.617188 3.824219-.453125 7.433594-.882812 10.574219-3.851562.050781-.046876.089844-.09375.136719-.140626.042969-.042968.085938-.085937.128906-.128906 3.296875-3.3125 3.605469-7.367187 3.847656-10.644531.152344-2.058594.359376-4.882813 1.109376-9.054687.976562-5.4375-2.640626-10.636719-8.074219-11.609376-5.445313-.976562-10.632813 2.636719-11.609375 8.074219-.433594 2.421875-.722656 4.488281-.925782 6.242188h-132.90625c-.414062-.472657-.839843-.949219-1.28125-1.429688-4.480468-8.425781-7.851562-58.707031-6.082031-67.601562 5.71875-28.070313-3.070312-36.523438-11.453125-38.671875-9.589844-2.460938-19.683594 4.226562-21.976562 11.613281-2.789063 8.992187-6.554688 14.65625-9.820313 14.78125-.070312 0-.144531.003906-.214843.003906-6.761719 0-17.402344-11.929687-21.929688-18.972656 6.953125-11.734375 3.691406-21.875-.570312-28.882813 17.683593-.144531 24.40625-9.316406 26.84375-14.800781.003906-.007812.003906-.015625.007812-.023437h269.652344c.191406 7.070312 3.429687 15.019531 6.792968 23.261718 1.996094 4.886719 5.992188 14.6875 5.878907 18.511719-.890625.210938-2.75.457031-6.136719.167969-8.792969-.753906-15.917969 2.675781-20.050781 9.664062-2.898438 4.894532-3.84375 10.601563-4.761719 16.117188-.871094 5.257812-1.863281 11.21875-4.324219 12.707031-4.726562 2.855469-6.242187 9.003907-3.386719 13.730469 1.878907 3.105469 5.183594 4.828125 8.566407 4.828125 1.761719 0 3.546875-.46875 5.164062-1.445313 10.339844-6.25 12.285157-17.980468 13.707031-26.542968.480469-2.894532 1.265626-7.617188 2.191407-9.144532.226562-.023437.613281-.039062 1.183593.011719 11.398438.976563 19.511719-1.703125 24.117188-7.960937 7.691406-10.453125 1.933594-24.558594-3.636719-38.203125-1.632812-3.996094-4.113281-10.082031-4.996093-13.859375 7.21875.238281 12.390624-.917969 17.121093-2.277344.027344-.007812.058594-.015625.085938-.023438.910156-.261718 1.804687-.53125 2.691406-.796874 3.683594-1.113282 7.472656-2.253907 12.832031-3.019532-.222656 3.371094-1.210937 8.324219-1.8125 11.367188-1.90625 9.574218-3.554687 17.839844 2.261719 23.335937 6.367187 6.019531 12.726563 8.34375 18.992187 6.964844 2.453126 6.136719 8.757813 10.242187 15.820313 10.078125 8.941406-.210938 19.511719-7.023438 22.371094-25.496094 1.628906-10.542968 5.453125-15.636718 10.292969-22.085937 5.820312-7.757813 12.417968-16.542969 14.613281-33.949219 1.273437-1.03125 5.507812-2.335938 8.09375-3.132812 8.328125-2.5625 22.265625-6.851563 24.488281-22.003907 2.089844-14.269531-3.761719-19.5625-9.933594-23.761719zm-288.671875 246.941407c-.695312 1.972656-1.203125 4.230469-1.4375 6.839843-.574219 6.476563.539063 13.851563 1.714844 21.664063 2.015625 13.382813 4.304687 28.550781-2.941406 36.191406-12.480469 13.171875-14.902344 26.65625-16.851563 37.492188-2.125 11.839843-3.09375 17.246093-14.769531 21.03125-7.085937 2.296875-10.109375-.414063-15.089844-9.207031-.605469-1.070313-1.179687-2.085938-1.785156-3.007813-13.246094-20.226563-14.023437-26.320313-14.847656-32.773437-.652344-5.105469-1.390625-10.890626-5.914063-20.636719-8.207031-17.679688-8.417968-29.59375-8.601562-40.101563-.101563-5.703125-.203125-11.496094-1.621094-17.492187zm220.078125-139.980469c-1.367187-4.183594-3.617187-8.015625-8.15625-9.664062-5.289062-1.925782-9.507812.617187-11.6875 2.242187.296875-1.804687.71875-3.929687 1.050782-5.585937.710937-3.578126 1.449218-7.316407 1.863281-10.996094h24.257812c-2.605469 4.976562-4.828125 11-6.050781 18.917968-.332031 2.144532-.792969 3.8125-1.277344 5.085938zm0 0"/><path d="m126.054688 275.988281c0 27.566407 22.425781 49.996094 49.996093 49.996094 27.566407 0 49.992188-22.429687 49.992188-49.996094 0-27.566406-22.425781-49.996093-49.992188-49.996093-27.570312.003906-49.996093 22.429687-49.996093 49.996093zm79.992187 0c0 16.539063-13.457031 29.996094-29.996094 29.996094-16.542969 0-30-13.457031-30-29.996094 0-16.539062 13.457031-29.996093 30-29.996093 16.539063 0 29.996094 13.457031 29.996094 29.996093zm0 0"/><path d="m166.046875 275.988281c0 5.523438 4.476563 10 10 10h.003906c5.523438 0 9.996094-4.476562 9.996094-10 0-5.523437-4.480469-10-10-10-5.523437 0-10 4.480469-10 10zm0 0"/><path d="m96.523438 113.722656c1.703124 1.136719 3.628906 1.683594 5.535156 1.683594 3.230468 0 6.402344-1.566406 8.328125-4.453125l.003906-.007813c3.0625-4.59375 1.820313-10.800781-2.773437-13.863281s-10.804688-1.816406-13.867188 2.777344-1.824219 10.800781 2.773438 13.863281zm0 0"/><path d="m262.835938 302.207031c-4.417969 3.316407-5.3125 9.582031-2 14 1.964843 2.621094 4.96875 4 8.007812 4 2.089844 0 4.191406-.652343 5.992188-2l.003906-.003906c4.417968-3.3125 5.3125-9.578125 2-13.996094s-9.585938-5.3125-14.003906-2zm0 0"/></svg>