<?xml version="1.0" encoding="UTF-8"?>
<svg xmlns="http://www.w3.org/2000/svg" xmlns:xlink="http://www.w3.org/1999/xlink" width="512" height="512" viewBox="0 0 46 60" version="1.1"><!-- Generator: Sketch 51.3 (57544) - http://www.bohemiancoding.com/sketch --><title>010 - Carrying Box</title><desc>Created with Sketch.</desc><defs/><g id="Page-1" stroke="none" stroke-width="1" fill="none" fill-rule="evenodd"><g id="010---Carrying-Box" transform="translate(-1.000000, -1.000000)" fill="#45B4FB" fill-rule="nonzero"><path d="M2.553,60.165 C4.29805158,61.5142965 6.80603954,61.1962124 8.159,59.454 L15.167,50.444 C15.5011462,50.0060817 15.7439463,49.5055189 15.881,48.972 L17.056,44.265 L20,47.534 L20,57 C20,59.209139 21.790861,61 24,61 C26.209139,61 28,59.209139 28,57 L28,46 C28.0039742,45.0103133 27.638051,44.0548472 26.974,43.321 L19.132,34.612 L19.384,31.59 L20.484,32.899 C21.177204,34.1957295 22.5296176,35.0038698 24,35 L38,35 C40.209139,35 42,33.209139 42,31 C41.9958554,30.2957468 41.8039241,29.6053465 41.444,29 L45,29 C46.1045695,29 47,28.1045695 47,27 L47,11 C47,9.8954305 46.1045695,9 45,9 L29,9 C27.8954305,9 27,9.8954305 27,11 L27,27 L26.287,27 L20.5,20.738 C20.444,20.638 20.368,20.544 20.3,20.448 L20.662,16.101 C23.87876,14.440923 25.5799828,10.8276905 24.8101999,7.29062462 C24.0404171,3.75355872 20.9914642,1.17412195 17.3757435,1.00101932 C13.7600228,0.827916695 10.4785982,3.10428664 9.37443639,6.55163744 C8.27027462,9.99898824 9.61854086,13.758215 12.662,15.718 L12.103,22.508 L11.04,35.348 L8.321,46.213 L1.841,54.546 C1.1889907,55.3850499 0.897629361,56.4490494 1.03120655,57.5032211 C1.16478374,58.5573928 1.71232061,59.5150931 2.553,60.165 Z M39,11 L39,16.131 L37.555,15.168 C37.2189631,14.9438005 36.7810369,14.9438005 36.445,15.168 L35,16.131 L35,11 L39,11 Z M29,11 L33,11 L33,18 C32.9999448,18.3688869 33.2029784,18.707846 33.528235,18.881874 C33.8534915,19.0559019 34.2481413,19.0367322 34.555,18.832 L37,17.2 L39.445,18.83 C39.7515602,19.034534 40.14577,19.0538804 40.4708844,18.8803466 C40.7959988,18.7068129 40.9993185,18.368528 41,18 L41,11 L45,11 L45,27 L29,27 L29,11 Z M11,9 C11,5.6862915 13.6862915,3 17,3 C20.3137085,3 23,5.6862915 23,9 C23,12.3137085 20.3137085,15 17,15 C13.6876624,14.9966926 11.0033074,12.3123376 11,9 Z M17,17 C17.5374281,17.0000221 18.0734835,16.9457465 18.6,16.838 L18.279,20.719 L18.279,20.73 C18.279,20.748 18.289,20.764 18.29,20.782 C18.2930732,20.888318 18.3136838,20.9933985 18.351,21.093 C18.3725993,21.137776 18.3980272,21.180602 18.427,21.221 C18.4547175,21.2811036 18.4882081,21.3383726 18.527,21.392 C18.6283582,21.504261 18.7135165,21.6301472 18.78,21.766 C18.8230441,21.850494 18.8771903,21.9288547 18.941,21.999 L25.111,28.679 C25.3014227,28.8848926 25.5695526,29.0013604 25.85,29 L38,29 C39.1045695,29 40,29.8954305 40,31 C40,32.1045695 39.1045695,33 38,33 L24,33 C23.2425877,33.0015682 22.5502284,32.572189 22.215,31.893 C22.1803196,31.8213206 22.1369976,31.7541547 22.086,31.693 L19.373,28.464 L17.8,26.4 C17.586579,26.1078732 17.2320165,25.9537998 16.8728351,25.9971051 C16.5136538,26.0404103 16.2058715,26.2743403 16.0679985,26.6088214 C15.9301254,26.9433025 15.9836642,27.326169 16.208,27.61 L17.566,29.395 L17.1,34.877 C17.077393,35.1452774 17.1639165,35.4113373 17.34,35.615 L17.413,35.699 L25.486,44.663 C25.8184356,45.0287483 26.0018159,45.5057512 26,46 L26,57 C26,58.1045695 25.1045695,59 24,59 C22.8954305,59 22,58.1045695 22,57 L22,47.15 C22.0001753,46.9025624 21.908608,46.6638461 21.743,46.48 L13.518,37.346 C13.1461956,36.9345314 12.9609133,36.3877315 13.006,35.835 L13.026,35.595 L14.106,22.679 L14.606,16.64 C15.3809988,16.8812659 16.1883195,17.0026675 17,17 Z M3.419,55.774 L10.029,47.274 C10.11499,47.164587 10.176692,47.038115 10.21,46.903 L12.216,38.889 L15.441,42.474 L13.941,48.488 C13.8722418,48.7554734 13.7505049,49.0064281 13.583,49.226 L6.583,58.226 C5.88818445,59.0669827 4.65891427,59.2220653 3.777,58.58 C3.35754318,58.25495 3.08446239,57.776525 3.01788025,57.2500572 C2.9512981,56.7235894 3.09667351,56.1922424 3.422,55.773 L3.419,55.774 Z" id="Shape"/></g></g></svg>
