<?xml version="1.0" encoding="UTF-8"?>
<svg xmlns="http://www.w3.org/2000/svg" xmlns:xlink="http://www.w3.org/1999/xlink" width="512" height="512" viewBox="0 0 56 60" version="1.1"><!-- Generator: Sketch 51.3 (57544) - http://www.bohemiancoding.com/sketch --><title>003 - Moving Boxes</title><desc>Created with Sketch.</desc><defs/><g id="Page-1" stroke="none" stroke-width="1" fill="none" fill-rule="evenodd"><g id="003---Moving-Boxes" transform="translate(-1.000000, -1.000000)" fill="#45B4FB" fill-rule="nonzero"><path d="M3.051,8.846 C3.80537935,9.09965527 4.62984324,9.04133075 5.341,8.684 L6.226,8.241 L19.147,47.929 C19.3854075,48.6468551 19.8851844,49.2487293 20.547,49.615 C18.6760268,51.934916 18.4791448,55.1851 20.0564044,57.7138948 C21.6336639,60.2426897 24.6391489,61.4954938 27.5455518,60.8356656 C30.4519546,60.1758373 32.6218589,57.7480864 32.9525768,54.7861316 C33.2832948,51.8241767 31.7022952,48.9776176 29.013,47.693 L54,38.827 C55.0411012,38.4934552 55.8183428,37.6199855 56.0286576,36.5471801 C56.2389724,35.4743747 55.8490606,34.372094 55.0109592,33.6701468 C54.1728578,32.9681996 53.019266,32.7777272 52,33.173 L49.341,34.116 L43.01,16.09 C42.9220902,15.8397613 42.7383689,15.6346968 42.4992569,15.5199231 C42.2601449,15.4051493 41.9852313,15.390069 41.735,15.478 L38.685,16.548 L34.538,4.732 C34.4500902,4.48176129 34.2663689,4.27669683 34.0272569,4.16192308 C33.7881449,4.04714933 33.5132313,4.03206902 33.263,4.12 L28.2,5.9 L24.4,7.233 L19.34,9.009 C19.0897613,9.09690983 18.8846968,9.2806311 18.7699231,9.51974308 C18.6551493,9.75885506 18.640069,10.0337687 18.728,10.284 L22.883,22.1 L20.977,22.769 C20.4564326,22.952071 20.1825486,23.5222151 20.365,24.043 L26.72,42.143 L23.899,43.143 L10.852,3.071 C10.5817188,2.24055389 9.96298135,1.56910797 9.15734968,1.23198742 C8.35171802,0.894866873 7.43917497,0.92554089 6.658,1.316 L2.658,3.316 C1.57227,3.85846776 0.920365101,5.00168649 1.0064024,6.21233858 C1.0924397,7.42299067 1.8994663,8.46252766 3.051,8.846 Z M33.906,20.346 L35.606,25.187 L33.924,24.757 C33.5329142,24.6567666 33.1199183,24.8015321 32.877,25.124 L31.832,26.512 L30.132,21.671 L32.02,21.008 L33.906,20.346 Z M28.748,10.468 L28.216,10.333 C27.8249142,10.2327666 27.4119183,10.3775321 27.169,10.7 L26.84,11.138 L26.014,8.785 L26.968,8.45 L27.921,8.115 L28.748,10.468 Z M24.127,9.447 L25.572,13.563 C25.6937836,13.9112755 25.9974446,14.1641982 26.362,14.221 C26.4126361,14.2286423 26.4637915,14.2323201 26.515,14.232 C26.8297573,14.232 27.1261456,14.0838058 27.315,13.832 L28.367,12.432 L30.067,12.865 C30.4242348,12.9562153 30.8026807,12.843461 31.051742,12.5716056 C31.3008034,12.2997502 31.3800703,11.9129019 31.258,11.565 L29.808,7.452 L32.982,6.338 L36.76,17.1 L24.731,21.324 L20.953,10.561 L24.127,9.447 Z M28.244,22.333 L30.563,28.938 C30.6852959,29.2857065 30.9889479,29.5379489 31.3531854,29.5944037 C31.717423,29.6508584 32.0831857,29.5023714 32.305,29.208 L34.073,26.86 L36.919,27.588 C37.27638,27.6796842 37.6552096,27.5671356 37.9045583,27.295195 C38.1539069,27.0232543 38.2332592,26.636108 38.111,26.288 L35.793,19.688 L41.454,17.7 L47.416,34.68 L28.545,41.3 L22.583,24.32 L28.244,22.333 Z M26,49 C28.5704019,48.9666972 30.7582869,50.8637925 31.0894236,53.412993 C31.4205603,55.9621935 29.7899652,58.3553027 27.2963592,58.9798056 C24.8027532,59.6043085 22.2367072,58.2622133 21.3272637,55.8578449 C20.4178202,53.4534765 21.4533084,50.7491142 23.736,49.567 L25.069,49.094 C25.3757187,49.0336735 25.6874128,49.0022027 26,49 Z M3.552,5.105 L7.552,3.105 C7.81258239,2.97412448 8.11731009,2.96351036 8.38636708,3.07593775 C8.65542408,3.18836513 8.86200464,3.41263306 8.952,3.69 L22.315,44.738 C22.3984865,44.994471 22.5820347,45.2063426 22.8239884,45.3255307 C23.0659421,45.4447188 23.3457824,45.4611156 23.6,45.371 L52.666,35.057 C53.0469182,34.9234544 53.470775,35.032014 53.740597,35.3322293 C54.010419,35.6324445 54.0732929,36.0654418 53.9,36.43 C53.7870664,36.6699894 53.5823826,36.8544931 53.332,36.942 L24.582,47.142 C23.9727136,47.2697007 23.3834119,47.4789163 22.83,47.764 L22.33,47.941 C22.0757824,48.0311156 21.7959421,48.0147188 21.5539884,47.8955307 C21.3120347,47.7763426 21.1284865,47.564471 21.045,47.308 L7.768,6.518 C7.67721553,6.2405562 7.469731,6.01663363 7.2,5.905 C7.07759021,5.85439251 6.94645837,5.82823408 6.814,5.828 C6.65926986,5.8263001 6.50625619,5.86053135 6.367,5.928 L4.447,6.9 C3.95270515,7.14852814 3.35052814,6.94929485 3.102,6.455 C2.85347186,5.96070515 3.05270515,5.35852814 3.547,5.11 L3.552,5.105 Z" id="Shape"/><path d="M23,54 C23,55.6568542 24.3431458,57 26,57 C27.6568542,57 29,55.6568542 29,54 C29,52.3431458 27.6568542,51 26,51 C24.3431458,51 23,52.3431458 23,54 Z M26,53 C26.5522847,53 27,53.4477153 27,54 C27,54.5522847 26.5522847,55 26,55 C25.4477153,55 25,54.5522847 25,54 C25,53.4477153 25.4477153,53 26,53 Z" id="Shape"/></g></g></svg>
