<?xml version="1.0" ?><svg enable-background="new 0 0 64 64" height="64px" version="1.1" viewBox="0 0 64 64" width="64px" style="fill:#4C8BF4" xml:space="preserve" xmlns="http://www.w3.org/2000/svg" xmlns:xlink="http://www.w3.org/1999/xlink"><g id="_x31_-Call"/><g id="_x32_-24_Hours_Call"/><g id="_x33_-Sending_Call"/><g id="_x34_-Incoming_Call"/><g id="_x35_-Talk_On_Phone"/><g id="_x36_-Block_Call"/><g id="_x37_-Hold_Call"/><g id="_x38_-Mute_Call"/><g id="_x39_-Phone_Book"/><g id="_x31_0-Add_Contact"/><g id="_x31_1-Delete_Contact"/><g id="_x31_2-Mail"/><g id="_x31_3-Message_Read"/><g id="_x31_4-Email"/><g id="_x31_5-Send_Mail"/><g id="_x31_6-Important_Mail"/><g id="_x31_7-Mail_Chain"/><g id="_x31_8-Messaging"/><g id="_x31_9-Sending"/><g id="_x32_0-Chat"/><g id="_x32_1-Mail_Attachment"/><g id="_x32_2-Mobile_Link"/><g id="_x32_3-Smartphone"/><g id="_x32_4-Social_Media"/><g id="_x32_5-Support"/><g id="_x32_6-Links"/><g id="_x32_7-Phone"/><g id="_x32_8-Phone-2"/><g id="_x32_9-Map"/><g id="_x33_0-Location"/><g id="_x33_1-Write"/><g id="_x33_2-World"/><g id="_x33_3-Home"/><g id="_x33_4-Calendar"/><g id="_x33_5-Website"/><g id="_x33_6-Info"><g><path d="M21.4458008,22.6943359c2.9931641,0,5.7817383-1.7382813,7.4584961-4.6503906    c0.1787109-0.3095703,0.5092773-0.5009766,0.8666992-0.5009766c0.3579102,0,0.6879883,0.1914063,0.8666992,0.5009766    c1.6767578,2.9121094,4.4643555,4.6503906,7.4580078,4.6503906c0.2811279,0,0.5526123-0.0167236,0.8158569-0.0449829    c0.000061-0.0151367,0.0020142-0.0297241,0.0020142-0.0448608c0-5.7324219-4.1015625-10.3955078-9.1425781-10.3955078    c-5.0415039,0-9.1430664,4.6630859-9.1430664,10.3955078c0,0.0151367,0.0019531,0.0297241,0.0020142,0.0448608    C20.8931885,22.6776123,21.1645508,22.6943359,21.4458008,22.6943359z"/><path d="M29.7709961,20.3525391c-2.0732422,2.7441406-5.0927734,4.3417969-8.3251953,4.3417969    c-0.2171021,0-0.4257202-0.0177612-0.6363525-0.0314331C21.6519775,29.4123535,25.3492432,33,29.7709961,33    c4.4213257,0,8.1185303-3.5876465,8.9610596-8.3370972c-0.2106323,0.0136719-0.4193115,0.0314331-0.6363525,0.0314331    C34.8632813,24.6943359,31.84375,23.0966797,29.7709961,20.3525391z"/><path d="M46.2290039,35.7910156c-4.4111328,0-8,3.5888672-8,8s3.5888672,8,8,8s8-3.5888672,8-8    S50.6401367,35.7910156,46.2290039,35.7910156z M47.2290039,47.0966797c0,0.5527344-0.4477539,1-1,1s-1-0.4472656-1-1v-3.1474609    c0-0.5527344,0.4477539-1,1-1s1,0.4472656,1,1V47.0966797z M46.2290649,41.8671265    c-0.6443481,0-1.166687-0.5223389-1.166687-1.166687s0.5223389-1.166687,1.166687-1.166687    c0.6442871,0,1.166626,0.5223389,1.166626,1.166687S46.8733521,41.8671265,46.2290649,41.8671265z"/><path d="M36.2290039,43.7910156c0-3.8685913,2.2125244-7.2242432,5.4349976-8.8865967    c-1.5162354-1.1160889-3.1748657-1.9946899-4.9233398-2.6434937C34.8147583,33.980835,32.380188,35,29.7709961,35    c-2.6077881,0-5.0412598-1.0182495-6.9667969-2.7364502C15.2062378,35.071167,9.7709961,42.3051758,9.7709961,50.7910156    c0,0.5527344,0.4477539,1,1,1h29.4835815C37.8166504,49.9655762,36.2290039,47.0637817,36.2290039,43.7910156z"/></g></g><g id="_x33_7-Bull_Horn"/><g id="_x33_8-Profile"/><g id="_x33_9-Quote__x26__Answer"/><g id="_x34_0-Notification"/><g id="_x34_1-Share"/><g id="_x34_2-Time"/></svg>