<?xml version="1.0" ?><svg enable-background="new 0 0 64 64" height="64px" version="1.1" viewBox="0 0 64 64" width="64px" xml:space="preserve" xmlns="http://www.w3.org/2000/svg" xmlns:xlink="http://www.w3.org/1999/xlink" fill="#303A3F"><g id="_x31_-Call"/><g id="_x32_-24_Hours_Call"/><g id="_x33_-Sending_Call"/><g id="_x34_-Incoming_Call"/><g id="_x35_-Talk_On_Phone"/><g id="_x36_-Block_Call"/><g id="_x37_-Hold_Call"/><g id="_x38_-Mute_Call"/><g id="_x39_-Phone_Book"/><g id="_x31_0-Add_Contact"/><g id="_x31_1-Delete_Contact"/><g id="_x31_2-Mail"/><g id="_x31_3-Message_Read"/><g id="_x31_4-Email"/><g id="_x31_5-Send_Mail"/><g id="_x31_6-Important_Mail"/><g id="_x31_7-Mail_Chain"/><g id="_x31_8-Messaging"/><g id="_x31_9-Sending"/><g id="_x32_0-Chat"/><g id="_x32_1-Mail_Attachment"/><g id="_x32_2-Mobile_Link"/><g id="_x32_3-Smartphone"/><g id="_x32_4-Social_Media"/><g id="_x32_5-Support"/><g id="_x32_6-Links"/><g id="_x32_7-Phone"/><g id="_x32_8-Phone-2"/><g id="_x32_9-Map"/><g id="_x33_0-Location"/><g id="_x33_1-Write"/><g id="_x33_2-World"/><g id="_x33_3-Home"/><g id="_x33_4-Calendar"/><g id="_x33_5-Website"/><g id="_x33_6-Info"/><g id="_x33_7-Bull_Horn"/><g id="_x33_8-Profile"><g><path d="M47,11H17c-3.8599854,0-7,3.1400146-7,7v8h10.039978C20.5499878,19.8499756,25.7199707,15,32,15    s11.4500122,4.8499756,11.960022,11H54v-8C54,14.1400146,50.8599854,11,47,11z"/><path d="M32,39c-6.2800293,0-11.4500122-4.8500366-11.960022-11H10v18c0,3.8599854,3.1400146,7,7,7h30    c3.8599854,0,7-3.1400146,7-7V28H43.960022C43.4500122,34.1499634,38.2800293,39,32,39z M41.8800049,49H22.1199951    c-0.5499878,0-1-0.4500122-1-1s0.4500122-1,1-1h19.7600098c0.5499878,0,1,0.4500122,1,1S42.4299927,49,41.8800049,49z     M41.8800049,44H22.1199951c-0.5499878,0-1-0.4500122-1-1s0.4500122-1,1-1h19.7600098c0.5499878,0,1,0.4500122,1,1    S42.4299927,44,41.8800049,44z"/><path d="M32,37c5.5136719,0,10-4.4863281,10-10s-4.4863281-10-10-10c-5.5141602,0-10,4.4863281-10,10S26.4858398,37,32,37z M32,19    c4.4111328,0,8,3.5888672,8,8c0,1.8771973-0.6543579,3.6019287-1.7410278,4.9680786    c-0.9762573-1.9443359-2.8239136-3.3746338-5.0345459-3.765625C34.2693481,27.7333374,35,26.6885986,35,25.4689941    c0-1.6568604-1.3431396-3-3-3s-3,1.3431396-3,3c0,1.2196045,0.7306519,2.2643433,1.7755737,2.7334595    c-2.2106323,0.3909912-4.0582886,1.8212891-5.0345459,3.765625C24.6543579,30.6019287,24,28.8771973,24,27    C24,22.5888672,27.5888672,19,32,19z"/></g></g><g id="_x33_9-Quote__x26__Answer"/><g id="_x34_0-Notification"/><g id="_x34_1-Share"/><g id="_x34_2-Time"/></svg>