<?xml version="1.0" ?><!DOCTYPE svg  PUBLIC '-//W3C//DTD SVG 1.1//EN'  'http://www.w3.org/Graphics/SVG/1.1/DTD/svg11.dtd'><svg style="enable-background:new 0 0 512 512;" version="1.1" viewBox="0 0 512 512" xml:space="preserve" xmlns="http://www.w3.org/2000/svg" xmlns:xlink="http://www.w3.org/1999/xlink"><style type="text/css">
	.st0{display:none;}
	.st1{display:inline;fill:#F3AD2E;}
	.st2{fill:#F3AD2E;}
	.st3{clip-path:url(#SVGID_2_);}
</style>
<g xmlns="http://www.w3.org/2000/svg"><g class="st0" id="Layer_1"><path class="st1" d="M256,28C130.1,28,28,130.1,28,256s102.1,228,228,228s228-102.1,228-228S381.9,28,256,28z M256,122     c36.7,0,66.5,29.8,66.5,66.5S292.7,255,256,255s-66.5-29.8-66.5-66.5S219.3,122,256,122z M363.5,351.2     c0,21.3-17.4,38.7-38.7,38.7H187.2c-21.3,0-38.7-17.4-38.7-38.7v-82c0-21.3,17.4-38.7,38.7-38.7h3.2c13.5,22,37.8,36.7,65.5,36.7     s52-14.7,65.5-36.7h3.2c21.3,0,38.7,17.4,38.7,38.7V351.2z"/></g><g id="Layer_2"><g><path class="st2" d="M366.8,29h-279c-27.5,0-50,22.5-50,50v354c0,27.5,22.5,50,50,50h279c27.5,0,50-22.5,50-50V79      C416.8,51.5,394.3,29,366.8,29z M227.3,122c36.7,0,66.5,29.8,66.5,66.5S264,255,227.3,255s-66.5-29.8-66.5-66.5      S190.5,122,227.3,122z M334.8,351.2c0,21.3-17.4,38.7-38.7,38.7H158.5c-21.3,0-38.7-17.4-38.7-38.7v-82      c0-21.3,17.4-38.7,38.7-38.7h3.2c13.5,22,37.8,36.7,65.5,36.7s52-14.7,65.5-36.7h3.2c21.3,0,38.7,17.4,38.7,38.7V351.2z"/></g></g></g>
</svg>