<?xml version="1.0" encoding="iso-8859-1"?>
<!-- Generator: Adobe Illustrator 19.0.0, SVG Export Plug-In . SVG Version: 6.00 Build 0)  -->
<svg version="1.1" id="Capa_1" xmlns="http://www.w3.org/2000/svg" xmlns:xlink="http://www.w3.org/1999/xlink" x="0px" y="0px"
	 viewBox="0 0 496 496" style="enable-background:new 0 0 496 496;" xml:space="preserve">
<path style="fill:#656D78;" d="M120,400c26.48,0,48,21.52,48,48s-21.52,48-48,48s-48-21.52-48-48S93.52,400,120,400z M136,448
	c0-8.8-7.2-16-16-16s-16,7.2-16,16s7.2,16,16,16S136,456.8,136,448z"/>
<g>
	<path style="fill:#CCD1D9;" d="M120,432c8.8,0,16,7.2,16,16s-7.2,16-16,16s-16-7.2-16-16S111.2,432,120,432z"/>
	<path style="fill:#CCD1D9;" d="M384,432c8.8,0,16,7.2,16,16s-7.2,16-16,16s-16-7.2-16-16S375.2,432,384,432z"/>
</g>
<path style="fill:#656D78;" d="M336,448c0-26.48,21.52-48,48-48s48,21.52,48,48s-21.52,48-48,48S336,474.48,336,448z M400,448
	c0-8.8-7.2-16-16-16s-16,7.2-16,16s7.2,16,16,16S400,456.8,400,448z"/>
<path style="fill:#FFCE54;" d="M496,416v32h-64c0-26.48-21.52-48-48-48s-48,21.52-48,48H168c0-26.48-21.52-48-48-48s-48,21.52-48,48
	l-56,0.16V416H0V312h32h120h48h120v-96h40v72c0,17.68,14.32,32,32,32h96v56v40H496z"/>
<path style="fill:#5D9CEC;" d="M440,216l48,104h-96c-17.68,0-32-14.32-32-32v-72H440z"/>
<polygon style="fill:#F6BB42;" points="488,416 488,376 488,320 456,320 456,376 456,448 496,448 496,416 "/>
<polygon style="fill:#4A89DC;" points="488,320 440,216 408,216 456,320 "/>
<polygon style="fill:#ED5565;" points="344,120 344,152 320,134.88 176,32 32,134.88 8,152 8,120 176,0 "/>
<g>
	<rect x="232" y="176" style="fill:#5D9CEC;" width="56" height="56"/>
	<path style="fill:#5D9CEC;" d="M176,104c13.28,0,24,10.72,24,24s-10.72,24-24,24s-24-10.72-24-24S162.72,104,176,104z"/>
</g>
<rect x="152" y="216" style="fill:#ED5565;" width="48" height="96"/>
<rect x="64" y="176" style="fill:#5D9CEC;" width="56" height="56"/>
<path style="fill:#E6E9ED;" d="M320,216v96H200v-96h-48v96H32V134.88L176,32l144,102.88V216z M288,232v-56h-56v56H288z M200,128
	c0-13.28-10.72-24-24-24s-24,10.72-24,24s10.72,24,24,24S200,141.28,200,128z M120,232v-56H64v56H120z"/>
<polygon style="fill:#CCD1D9;" points="288,112.024 288,160.8 288,176 288,232 288,312 320,312 320,216 320,134.88 "/>
<polygon style="fill:#DA4453;" points="312,129.168 320,134.88 344,152 344,120 312,97.144 "/>
<path style="fill:#E6E9ED;" d="M488,368h-8c-4.424,0-8,3.576-8,8s3.576,8,8,8h8V368z"/>
<g>
</g>
<g>
</g>
<g>
</g>
<g>
</g>
<g>
</g>
<g>
</g>
<g>
</g>
<g>
</g>
<g>
</g>
<g>
</g>
<g>
</g>
<g>
</g>
<g>
</g>
<g>
</g>
<g>
</g>
</svg>
