<?xml version="1.0" ?>
<svg enable-background="new 0 0 64 64" height="64px" version="1.1" viewBox="0 0 64 64" width="64px" xml:space="preserve" xmlns="http://www.w3.org/2000/svg" xmlns:xlink="http://www.w3.org/1999/xlink" style="fill:skyblue">
    <g id="_x31_-Call"/><g id="_x32_-24_Hours_Call"/><g id="_x33_-Sending_Call"/><g id="_x34_-Incoming_Call"/><g id="_x35_-Talk_On_Phone"/><g id="_x36_-Block_Call"/><g id="_x37_-Hold_Call"/><g id="_x38_-Mute_Call"/><g id="_x39_-Phone_Book"/><g id="_x31_0-Add_Contact"/><g id="_x31_1-Delete_Contact"/><g id="_x31_2-Mail"/><g id="_x31_3-Message_Read"/><g id="_x31_4-Email"/><g id="_x31_5-Send_Mail"/><g id="_x31_6-Important_Mail"/><g id="_x31_7-Mail_Chain"/><g id="_x31_8-Messaging"/><g id="_x31_9-Sending"/><g id="_x32_0-Chat"/><g id="_x32_1-Mail_Attachment"/><g id="_x32_2-Mobile_Link"/><g id="_x32_3-Smartphone"/><g id="_x32_4-Social_Media"/><g id="_x32_5-Support"/><g id="_x32_6-Links"/><g id="_x32_7-Phone"/><g id="_x32_8-Phone-2"><g><path d="M10.5834961,21.7183228c0.1044922,0.4443359,0.2636719,0.8964844,0.472168,1.3417969    c0.7319336,1.5664063,2.5253906,2.4941406,4.3447266,2.1757813l5.9399414-1.0361328    c1.0800781-0.1894531,2.0161133-0.7841797,2.6362305-1.6738281c0.6079102-0.8720703,0.8383789-1.9277344,0.6484375-2.9716797    l-0.3066406-1.6943359C26.5317383,17.4507446,29.2167969,17.2280884,32,17.2280884s5.46875,0.2226563,7.6816406,0.6318359    l-0.3056641,1.6933594c-0.1904297,1.0449219,0.0390625,2.1005859,0.6474609,2.9726563    c0.6201172,0.8896484,1.5556641,1.484375,2.6367188,1.6738281l5.9394531,1.0361328    c0.2402344,0.0419922,0.4814453,0.0615234,0.7197266,0.0615234c1.5664063,0,2.9892578-0.8779297,3.6269531-2.2382813    c0.2080078-0.4482422,0.3662109-0.8994141,0.4814453-1.3955078l0.1455078-0.8242188    c0.0273438-0.2207031,0.0380859-0.4433594,0.0380859-0.6640625c0-1.2041016-0.3388672-2.3925781-1.0087891-3.5322266    C49.7949219,11.8735962,41.5146484,8.6685181,32,8.6685181c-9.5151367,0-17.7944336,3.2050781-20.6030273,7.9755859    c-0.6689453,1.1376953-1.0083008,2.3261719-1.0083008,3.53125c0,0.2216797,0.0102539,0.4453125,0.0458984,0.7148438    L10.5834961,21.7183228z"/><path d="M32,34.2915039c-2.9699707,0-5.3800049,2.4199829-5.3800049,5.3800049    c0,2.9700317,2.4100342,5.3800049,5.3800049,5.3800049s5.3800049-2.4099731,5.3800049-5.3800049    C37.3800049,36.7114868,34.9699707,34.2915039,32,34.2915039z"/><path d="M55.0100098,45.6015015l-5.1300049-17.2099609c-0.1300049-0.4200439-0.5-0.7000122-0.9299927-0.7200317    c-0.2600098-0.0100098-0.5300293-0.0299683-0.7900391-0.0800171l-5.9299927-1.0299683    c-1.7299805-0.3099976-3.2199707-1.25-4.2199707-2.6400146c-0.5800171-0.8200073-0.9500122-1.75-1.1000366-2.7600098    c-0.0299683-0.1499634-0.0499878-0.2999878-0.0599976-0.4500122c-0.0299683-0.4899902-0.4199829-0.8899536-0.9099731-0.9299927    c-2.5700073-0.2099609-5.3099976-0.2099609-7.8800049,0c-0.4899902,0.0400391-0.8900146,0.4400024-0.9099731,0.9400024    c-0.0100098,0.1600342-0.0300293,0.3300171-0.0599976,0.5c-0.4400024,2.7000122-2.5700073,4.8500366-5.3099976,5.3400269    l-5.9400024,1.0299683c-0.2700195,0.0400391-0.5400391,0.0700073-0.7900391,0.0800171    c-0.4299927,0.0200195-0.7999878,0.2999878-0.9299927,0.7200317L8.9899902,45.6015015    c-0.6900024,2.2900391-0.2600098,4.710022,1.1699829,6.6300049c1.4700317,1.9700317,3.7300415,3.0999756,6.210022,3.0999756    h31.2600098c2.4799805,0,4.7399902-1.1299438,6.210022-3.0999756    C55.2700195,50.3115234,55.7000122,47.8915405,55.0100098,45.6015015z M32,47.0515137    c-4.0700073,0-7.3800049-3.3099976-7.3800049-7.3800049S27.9299927,32.2915039,32,32.2915039    s7.3800049,3.3099976,7.3800049,7.3800049S36.0700073,47.0515137,32,47.0515137z"/></g></g><g id="_x32_9-Map"/><g id="_x33_0-Location"/><g id="_x33_1-Write"/><g id="_x33_2-World"/><g id="_x33_3-Home"/><g id="_x33_4-Calendar"/><g id="_x33_5-Website"/><g id="_x33_6-Info"/><g id="_x33_7-Bull_Horn"/><g id="_x33_8-Profile"/><g id="_x33_9-Quote__x26__Answer"/><g id="_x34_0-Notification"/><g id="_x34_1-Share"/><g id="_x34_2-Time"/></svg>