<svg height="512pt" viewBox="0 0 512 512" width="512pt" xmlns="http://www.w3.org/2000/svg" fill="#303A3F"><path d="m256 103.40625c-84.140625 0-152.59375 68.453125-152.59375 152.59375s68.453125 152.59375 152.59375 152.59375 152.59375-68.453125 152.59375-152.59375-68.453125-152.59375-152.59375-152.59375zm-40.863281 268.171875s-.019531-28.164063-.019531-28.167969c0-2.738281 2.328124-5.046875 5.058593-5.046875 23.777344 0 47.554688.027344 71.335938.027344 2.617187 0 5.375 2.222656 5.371093 5.050781l-.015624 28.136719c-12.789063 4.535156-26.542969 7.015625-40.867188 7.015625s-28.078125-2.480469-40.863281-7.015625zm111.738281-15.601563s.007812-12.515624.007812-12.515624c.011719-19.164063-16.320312-35.066407-35.371093-35.066407-11.804688 0-23.734375-.007812-35.660157-.015625-11.933593-.007812-23.867187-.015625-35.675781-.015625-19.019531 0-35.070312 15.949219-35.058593 35.066407l.007812 12.546874c-31.277344-22.238281-51.71875-58.765624-51.71875-99.976562 0-67.597656 54.996094-122.59375 122.59375-122.59375s122.59375 54.996094 122.59375 122.59375c0 41.210938-20.441406 77.738281-51.71875 99.976562zm0 0"/><path d="m497 199h-40.910156c-4.371094-15.382812-10.5-30.164062-18.316406-44.160156l28.945312-28.945313c2.8125-2.816406 4.390625-6.628906 4.390625-10.609375 0-3.976562-1.578125-7.792968-4.390625-10.605468l-59.398438-59.394532c-5.855468-5.859375-15.355468-5.859375-21.210937 0l-28.953125 28.949219c-13.996094-7.808594-28.773438-13.9375-44.15625-18.308594v-40.925781c0-8.285156-6.714844-15-15-15h-84c-8.285156 0-15 6.714844-15 15v40.921875c-15.382812 4.371094-30.160156 10.5-44.15625 18.3125l-28.949219-28.953125c-5.859375-5.855469-15.355469-5.855469-21.214843 0l-59.398438 59.398438c-5.855469 5.855468-5.855469 15.355468 0 21.210937l28.945312 28.945313c-7.816406 14-13.945312 28.78125-18.316406 44.164062h-40.910156c-8.285156 0-15 6.714844-15 15v84c0 8.285156 6.714844 15 15 15h40.910156c4.371094 15.382812 10.503906 30.167969 18.316406 44.160156l-28.945312 28.945313c-5.855469 5.859375-5.855469 15.359375 0 21.214843l59.398438 59.398438c2.8125 2.8125 6.628906 4.390625 10.605468 4.390625 3.980469 0 7.792969-1.578125 10.605469-4.390625l28.953125-28.953125c13.996094 7.8125 28.777344 13.9375 44.15625 18.308594v40.925781c0 8.285156 6.714844 15 15 15h84c8.285156 0 15-6.714844 15-15v-40.925781c15.378906-4.367188 30.160156-10.496094 44.15625-18.308594l28.953125 28.953125c5.855469 5.855469 15.355469 5.855469 21.210937 0l59.398438-59.398438c5.855469-5.855468 5.855469-15.355468 0-21.214843l-28.945312-28.945313c7.8125-13.992187 13.945312-28.777344 18.316406-44.160156h40.910156c8.285156 0 15-6.714844 15-15v-84c0-8.285156-6.714844-15-15-15zm-15 84h-37.585938c-7.03125 0-13.117187 4.886719-14.640624 11.75-4.472657 20.148438-12.382813 39.226562-23.515626 56.703125-3.777343 5.929687-2.929687 13.691406 2.046876 18.664063l26.59375 26.597656-38.183594 38.183594-26.601563-26.601563c-4.972656-4.972656-12.730469-5.824219-18.664062-2.046875-17.476563 11.128906-36.554688 19.039062-56.699219 23.511719-6.863281 1.523437-11.75 7.609375-11.75 14.640625v37.597656h-54v-37.597656c0-7.03125-4.886719-13.117188-11.75-14.640625-20.144531-4.472657-39.21875-12.382813-56.699219-23.511719-5.933593-3.777344-13.691406-2.925781-18.664062 2.046875l-26.601563 26.601563-38.183594-38.183594 26.597657-26.597656c4.972656-4.972657 5.824219-12.734376 2.042969-18.664063-11.128907-17.476563-19.042969-36.554687-23.515626-56.703125-1.523437-6.863281-7.609374-11.75-14.640624-11.75h-37.585938v-54h37.585938c7.03125 0 13.117187-4.886719 14.640624-11.75 4.472657-20.144531 12.382813-39.222656 23.515626-56.703125 3.777343-5.933594 2.929687-13.691406-2.042969-18.664063l-26.597657-26.597656 38.183594-38.183594 26.601563 26.601563c4.972656 4.972656 12.730469 5.824219 18.664062 2.046875 17.476563-11.128906 36.550781-19.039062 56.699219-23.507812 6.863281-1.523438 11.75-7.613282 11.75-14.644532v-37.597656h54v37.597656c0 7.03125 4.886719 13.121094 11.75 14.644532 20.144531 4.472656 39.222656 12.378906 56.699219 23.507812 5.933593 3.777344 13.691406 2.925781 18.664062-2.046875l26.601563-26.601563 38.183594 38.183594-26.597657 26.597656c-4.972656 4.972657-5.820312 12.730469-2.042969 18.664063 11.132813 17.480469 19.042969 36.558594 23.515626 56.703125 1.523437 6.863281 7.609374 11.75 14.640624 11.75h37.585938zm0 0"/><path d="m255.984375 194c-28.546875 0-51.769531 23.226562-51.769531 51.773438 0 28.546874 23.222656 51.773437 51.769531 51.773437s51.773437-23.226563 51.773437-51.773437c0-28.546876-23.226562-51.773438-51.773437-51.773438zm0 73.546875c-12.003906 0-21.769531-9.769531-21.769531-21.773437 0-12.007813 9.765625-21.773438 21.769531-21.773438 12.007813 0 21.773437 9.765625 21.773437 21.773438 0 12.003906-9.765624 21.773437-21.773437 21.773437zm0 0"/></svg>